<svg width="1e3" height="250" version="1.1" xmlns="http://www.w3.org/2000/svg">
 <g>
  <rect id="bg" width="1e3" height="250" fill="#f3f3f3" fill-rule="evenodd"/>
  <text x="402.9375" y="175.82812" fill="#24916d" font-family="sans-serif" font-size="10.6px" letter-spacing="0px" stroke-width=".265" word-spacing="0px" style="line-height:1.25" xml:space="preserve"><tspan x="402.9375" y="175.82812" fill="#24916d" font-size="32px" stroke-width=".265">TrueMeeting</tspan></text>
  <g id="XMLID_1_" transform="matrix(2.1 0 0 2.1 399 -24.2)" fill="#24916d">
   <path id="XMLID_6_" class="st0" d="m66.2 25.7h-36.5c-2.2 0-4.1 1.8-4.1 4.1v36.6c0 2.2 1.8 4.1 4.1 4.1h36.6c2.2 0 4.1-1.8 4.1-4.1v-36.7c-0.1-2.2-1.9-4-4.2-4z"/>
   <path id="XMLID_7_" class="st0" d="m85.6 32.6-7.5 4.5c-1.5 0.9-3.6 2.2-5.3 3.2v15.2c1.6 1 3.7 2.2 5.3 3.2l7.5 4.5c1.9 1.2 3.5 0.3 3.5-2v-26.6c0-2.2-1.6-3.1-3.5-2z"/>
  </g>
  <text x="336.48956" y="213.92735" fill="#333333" font-family="sans-serif" font-size="21.3px" letter-spacing="0px" word-spacing="0px" style="line-height:1.25" xml:space="preserve"><tspan x="336.48956" y="213.92735">Web based video conferencing</tspan></text>
 </g>
</svg>
